<svg width="358" height="59" viewBox="0 0 358 59" fill="none" xmlns="http://www.w3.org/2000/svg">
<g clip-path="url(#clip0_442_7695)">
<path d="M126.124 57.0954C122.64 57.0954 119.419 56.473 116.46 55.2281C113.501 53.9354 110.948 52.1399 108.801 49.8418C106.653 47.5436 104.983 44.8384 103.79 41.7263C102.597 38.5663 102 35.143 102 31.4563C102 27.7697 102.597 24.3703 103.79 21.2582C104.983 18.146 106.653 15.4648 108.801 13.2145C110.948 10.9164 113.501 9.14488 116.46 7.90003C119.419 6.60731 122.64 5.96094 126.124 5.96094C129.608 5.96094 132.805 6.60731 135.717 7.90003C138.675 9.14488 141.229 10.9164 143.376 13.2145C145.571 15.4648 147.266 18.146 148.459 21.2582C149.652 24.3703 150.248 27.7697 150.248 31.4563C150.248 35.143 149.652 38.5663 148.459 41.7263C147.266 44.8384 145.571 47.5436 143.376 49.8418C141.229 52.1399 138.675 53.9354 135.717 55.2281C132.805 56.473 129.608 57.0954 126.124 57.0954ZM126.124 45.4609C128.463 45.4609 130.467 44.8863 132.137 43.7372C133.808 42.5403 135.096 40.8884 136.003 38.7818C136.957 36.6751 137.435 34.2333 137.435 31.4563C137.435 28.6794 136.957 26.2615 136.003 24.2027C135.096 22.1439 133.808 20.54 132.137 19.3909C130.467 18.1939 128.463 17.5954 126.124 17.5954C123.833 17.5954 121.829 18.17 120.111 19.3191C118.441 20.4682 117.128 22.096 116.174 24.2027C115.267 26.2615 114.814 28.6794 114.814 31.4563C114.814 34.2333 115.267 36.6751 116.174 38.7818C117.128 40.8884 118.441 42.5403 120.111 43.7372C121.829 44.8863 123.833 45.4609 126.124 45.4609Z" fill="black"/>
<path d="M154.495 29.4454C154.495 27.6739 154.495 25.9024 154.495 24.1309C154.495 22.3594 154.495 20.5879 154.495 18.8163C155.45 18.8163 156.404 18.8163 157.359 18.8163C158.361 18.8163 159.339 18.8163 160.294 18.8163C160.294 18.577 160.294 18.3615 160.294 18.17C160.294 17.9785 160.294 17.787 160.294 17.5954C160.294 14.3876 160.938 11.7064 162.227 9.55183C163.563 7.34941 165.305 5.67365 167.452 4.52456C169.648 3.32759 172.034 2.65729 174.611 2.51366C177.236 2.32214 179.837 2.65729 182.414 3.51911C182.414 5.29062 182.414 7.11001 182.414 8.97728C182.414 10.8445 182.414 12.6879 182.414 14.5073C179.55 13.5497 177.116 13.3582 175.112 13.9327C173.108 14.5073 172.105 15.7521 172.105 17.6673C172.105 17.8588 172.105 18.0503 172.105 18.2418C172.105 18.4333 172.105 18.6248 172.105 18.8163C173.585 18.8163 175.064 18.8163 176.544 18.8163C178.023 18.8163 179.502 18.8163 180.982 18.8163C180.982 20.5879 180.982 22.3594 180.982 24.1309C180.982 25.9024 180.982 27.6739 180.982 29.4454C179.502 29.4454 178.023 29.4454 176.544 29.4454C175.064 29.4454 173.585 29.4454 172.105 29.4454C172.105 33.8024 172.105 38.2072 172.105 42.66C172.105 47.1127 172.105 51.5415 172.105 55.9463C170.196 55.9463 168.24 55.9463 166.235 55.9463C164.231 55.9463 162.25 55.9463 160.294 55.9463C160.294 51.5415 160.294 47.1127 160.294 42.66C160.294 38.2072 160.294 33.8024 160.294 29.4454C159.339 29.4454 158.361 29.4454 157.359 29.4454C156.404 29.4454 155.45 29.4454 154.495 29.4454Z" fill="black"/>
<path d="M185.115 29.4454C185.115 27.6739 185.115 25.9024 185.115 24.1309C185.115 22.3594 185.115 20.5879 185.115 18.8163C186.069 18.8163 187.024 18.8163 187.978 18.8163C188.98 18.8163 189.959 18.8163 190.913 18.8163C190.913 18.577 190.913 18.3615 190.913 18.17C190.913 17.9785 190.913 17.787 190.913 17.5954C190.913 14.3876 191.557 11.7064 192.846 9.55183C194.182 7.34941 195.924 5.67365 198.072 4.52456C200.267 3.32759 202.653 2.65729 205.23 2.51366C207.855 2.32214 210.456 2.65729 213.033 3.51911C213.033 5.29062 213.033 7.11001 213.033 8.97728C213.033 10.8445 213.033 12.6879 213.033 14.5073C210.17 13.5497 207.736 13.3582 205.731 13.9327C203.727 14.5073 202.725 15.7521 202.725 17.6673C202.725 17.8588 202.725 18.0503 202.725 18.2418C202.725 18.4333 202.725 18.6248 202.725 18.8163C204.204 18.8163 205.684 18.8163 207.163 18.8163C208.642 18.8163 210.122 18.8163 211.601 18.8163C211.601 20.5879 211.601 22.3594 211.601 24.1309C211.601 25.9024 211.601 27.6739 211.601 29.4454C210.122 29.4454 208.642 29.4454 207.163 29.4454C205.684 29.4454 204.204 29.4454 202.725 29.4454C202.725 33.8024 202.725 38.2072 202.725 42.66C202.725 47.1127 202.725 51.5415 202.725 55.9463C200.816 55.9463 198.859 55.9463 196.855 55.9463C194.85 55.9463 192.87 55.9463 190.913 55.9463C190.913 51.5415 190.913 47.1127 190.913 42.66C190.913 38.2072 190.913 33.8024 190.913 29.4454C189.959 29.4454 188.98 29.4454 187.978 29.4454C187.024 29.4454 186.069 29.4454 185.115 29.4454Z" fill="black"/>
<path d="M223.967 14.5791C222.583 14.5791 221.318 14.2439 220.173 13.5736C219.075 12.9033 218.192 12.0176 217.524 10.9164C216.856 9.81514 216.522 8.59423 216.522 7.25363C216.522 5.91303 216.856 4.71606 217.524 3.66272C218.192 2.56151 219.075 1.67576 220.173 1.00545C221.318 0.335151 222.583 0 223.967 0C225.303 0 226.52 0.335151 227.617 1.00545C228.763 1.67576 229.669 2.56151 230.338 3.66272C231.006 4.71606 231.34 5.91303 231.34 7.25363C231.34 8.59423 231.006 9.81514 230.338 10.9164C229.669 12.0176 228.763 12.9033 227.617 13.5736C226.52 14.2439 225.303 14.5791 223.967 14.5791ZM218.025 55.9463C218.025 49.8178 218.025 43.6415 218.025 37.4172C218.025 31.1451 218.025 24.9448 218.025 18.8163C219.982 18.8163 221.962 18.8163 223.967 18.8163C225.971 18.8163 227.928 18.8163 229.837 18.8163C229.837 24.9448 229.837 31.1451 229.837 37.4172C229.837 43.6415 229.837 49.8178 229.837 55.9463C227.928 55.9463 225.971 55.9463 223.967 55.9463C221.962 55.9463 219.982 55.9463 218.025 55.9463Z" fill="black"/>
<path d="M266.356 44.4556C266.356 47.4241 265.521 49.8659 263.851 51.7811C262.228 53.6483 260.033 55.0129 257.265 55.8747C254.497 56.7365 251.395 57.0956 247.959 56.952C244.57 56.8562 241.11 56.3056 237.579 55.3001C237.579 53.4808 237.579 51.6135 237.579 49.6983C237.579 47.7832 237.579 45.9159 237.579 44.0965C239.583 45.0062 241.588 45.7244 243.592 46.2511C245.596 46.7299 247.41 47.0171 249.033 47.1129C250.655 47.2086 251.968 47.0889 252.97 46.7538C253.972 46.3708 254.473 45.7483 254.473 44.8865C254.473 44.2162 254.043 43.6895 253.184 43.3065C252.373 42.9235 251.299 42.5883 249.963 42.3011C248.627 41.9659 247.195 41.5829 245.668 41.152C244.189 40.6732 242.781 40.0268 241.445 39.2129C240.108 38.3511 239.011 37.2259 238.152 35.8374C237.34 34.4011 236.935 32.5577 236.935 30.3074C236.935 27.6262 237.698 25.352 239.225 23.4847C240.8 21.5696 242.9 20.1332 245.525 19.1756C248.15 18.1702 251.085 17.6675 254.33 17.6675C257.575 17.6675 260.892 18.2181 264.28 19.3193C264.28 21.1387 264.28 23.0059 264.28 24.9211C264.28 26.8362 264.28 28.7035 264.28 30.5229C261.608 29.2302 259.102 28.3684 256.764 27.9374C254.425 27.5065 252.54 27.4587 251.108 27.7938C249.677 28.0811 248.961 28.7274 248.961 29.7329C248.961 30.4032 249.367 30.9299 250.178 31.3129C251.037 31.648 252.111 31.9593 253.399 32.2465C254.735 32.5338 256.143 32.9168 257.623 33.3956C259.15 33.8744 260.558 34.5447 261.846 35.4065C263.183 36.2205 264.256 37.3696 265.068 38.8538C265.927 40.2902 266.356 42.1574 266.356 44.4556Z" fill="black"/>
<path d="M278.354 14.5791C276.97 14.5791 275.706 14.2439 274.56 13.5736C273.463 12.9033 272.58 12.0176 271.912 10.9164C271.244 9.81514 270.91 8.59423 270.91 7.25363C270.91 5.91303 271.244 4.71606 271.912 3.66272C272.58 2.56151 273.463 1.67576 274.56 1.00545C275.706 0.335151 276.97 0 278.354 0C279.691 0 280.908 0.335151 282.005 1.00545C283.151 1.67576 284.057 2.56151 284.726 3.66272C285.394 4.71606 285.728 5.91303 285.728 7.25363C285.728 8.59423 285.394 9.81514 284.726 10.9164C284.057 12.0176 283.151 12.9033 282.005 13.5736C280.908 14.2439 279.691 14.5791 278.354 14.5791ZM272.413 55.9463C272.413 49.8178 272.413 43.6415 272.413 37.4172C272.413 31.1451 272.413 24.9448 272.413 18.8163C274.37 18.8163 276.35 18.8163 278.354 18.8163C280.359 18.8163 282.316 18.8163 284.224 18.8163C284.224 24.9448 284.224 31.1451 284.224 37.4172C284.224 43.6415 284.224 49.8178 284.224 55.9463C282.316 55.9463 280.359 55.9463 278.354 55.9463C276.35 55.9463 274.37 55.9463 272.413 55.9463Z" fill="black"/>
<path d="M296.334 55.9461C296.334 51.5413 296.334 47.1125 296.334 42.6598C296.334 38.207 296.334 33.8022 296.334 29.4452C295.379 29.4452 294.401 29.4452 293.399 29.4452C292.444 29.4452 291.49 29.4452 290.535 29.4452C290.535 27.6737 290.535 25.9022 290.535 24.1307C290.535 22.3592 290.535 20.5877 290.535 18.8161C291.49 18.8161 292.444 18.8161 293.399 18.8161C294.401 18.8161 295.379 18.8161 296.334 18.8161C296.334 17.1404 296.334 15.4886 296.334 13.8607C296.334 12.1849 296.334 10.5331 296.334 8.90527C298.29 8.90527 300.271 8.90527 302.275 8.90527C304.279 8.90527 306.236 8.90527 308.145 8.90527C308.145 10.5331 308.145 12.1849 308.145 13.8607C308.145 15.4886 308.145 17.1404 308.145 18.8161C309.243 18.8161 310.364 18.8161 311.51 18.8161C312.655 18.8161 313.776 18.8161 314.874 18.8161C314.874 20.5877 314.874 22.3592 314.874 24.1307C314.874 25.9022 314.874 27.6737 314.874 29.4452C313.776 29.4452 312.655 29.4452 311.51 29.4452C310.364 29.4452 309.243 29.4452 308.145 29.4452C308.145 33.8022 308.145 38.207 308.145 42.6598C308.145 47.1125 308.145 51.5413 308.145 55.9461C306.236 55.9461 304.279 55.9461 302.275 55.9461C300.271 55.9461 298.29 55.9461 296.334 55.9461Z" fill="black"/>
<path d="M337.759 57.0956C334.992 57.0956 332.414 56.6168 330.028 55.6592C327.642 54.6538 325.566 53.2653 323.8 51.4938C322.035 49.6744 320.651 47.5677 319.648 45.1738C318.694 42.7799 318.217 40.1705 318.217 37.3456C318.217 34.5208 318.694 31.9114 319.648 29.5174C320.651 27.1235 322.035 25.0408 323.8 23.2693C325.566 21.4978 327.642 20.1332 330.028 19.1756C332.414 18.1702 334.992 17.6675 337.759 17.6675C340.575 17.6675 343.152 18.1702 345.491 19.1756C347.877 20.1332 349.953 21.4978 351.719 23.2693C353.484 25.0408 354.844 27.1235 355.799 29.5174C356.801 31.9114 357.302 34.5208 357.302 37.3456C357.302 40.1705 356.801 42.7799 355.799 45.1738C354.844 47.5677 353.484 49.6744 351.719 51.4938C349.953 53.2653 347.877 54.6538 345.491 55.6592C343.152 56.6168 340.575 57.0956 337.759 57.0956ZM337.759 46.3947C340.098 46.3947 341.959 45.5568 343.343 43.8811C344.775 42.1574 345.491 39.979 345.491 37.3456C345.491 34.6644 344.775 32.5099 343.343 30.882C341.959 29.2062 340.098 28.3684 337.759 28.3684C335.421 28.3684 333.536 29.2062 332.104 30.882C330.72 32.5099 330.028 34.6644 330.028 37.3456C330.028 39.979 330.72 42.1574 332.104 43.8811C333.536 45.5568 335.421 46.3947 337.759 46.3947Z" fill="black"/>
<path d="M40.8717 1.07451C42.2557 -0.0583532 44.2471 -0.0565529 45.629 1.07881L88.8257 36.5669C89.693 37.2794 90.1956 38.3429 90.1956 39.4654V58.7704H82.6931V41.2385L46.999 11.9141V58.7704H39.4964V11.8956L0 44.2244V34.529L40.8717 1.07451Z" fill="black"/>
<path d="M22.4682 31.558L30.6952 24.4904C31.2849 23.9838 32.1972 24.4027 32.1972 25.1802V31.8723C32.1972 32.1365 32.0823 32.3877 31.8824 32.5604L23.6555 39.6698C23.0663 40.1789 22.1514 39.7604 22.1514 38.9817V32.2478C22.1514 31.9827 22.2671 31.7308 22.4682 31.558Z" fill="black"/>
<path d="M22.4682 47.8466L30.6952 40.779C31.2849 40.2724 32.1972 40.6914 32.1972 41.4688V48.161C32.1972 48.4252 32.0823 48.6763 31.8824 48.8491L23.6555 55.9584C23.0663 56.4675 22.1514 56.049 22.1514 55.2703V48.5364C22.1514 48.2713 22.2671 48.0194 22.4682 47.8466Z" fill="black"/>
<path d="M16.6316 36.3371L8.40469 43.4047C8.20359 43.5775 8.08789 43.8294 8.08789 44.0945V50.8284C8.08789 51.6071 9.00274 52.0256 9.59191 51.5165L17.8189 44.4072C18.0188 44.2344 18.1336 43.9833 18.1336 43.7191V37.0269C18.1336 36.2495 17.2213 35.8305 16.6316 36.3371Z" fill="black"/>
<path d="M8.40469 57.577L16.6316 50.5094C17.2213 50.0028 18.1336 50.4218 18.1336 51.1992V57.8914C18.1336 58.1556 18.0188 58.4067 17.8189 58.5794L17.5982 58.7701H8.08789V58.2668C8.08789 58.0017 8.20359 57.7498 8.40469 57.577Z" fill="black"/>
<path d="M76.4832 58.7701V58.2668C76.4832 58.0017 76.3675 57.7498 76.1664 57.577L67.9395 50.5094C67.3498 50.0028 66.4375 50.4218 66.4375 51.1992V57.8914C66.4375 58.1556 66.5524 58.4067 66.7523 58.5794L66.9729 58.7701H76.4832Z" fill="black"/>
<path d="M53.7911 24.4904L62.018 31.558C62.2191 31.7308 62.3348 31.9827 62.3348 32.2478V38.9817C62.3348 39.7604 61.42 40.1789 60.8308 39.6698L52.6039 32.5604C52.404 32.3877 52.2891 32.1365 52.2891 31.8723V25.1802C52.2891 24.4027 53.2014 23.9838 53.7911 24.4904Z" fill="black"/>
<path d="M62.018 47.8466L53.7911 40.779C53.2014 40.2724 52.2891 40.6914 52.2891 41.4688V48.161C52.2891 48.4252 52.404 48.6763 52.6039 48.8491L60.8308 55.9584C61.42 56.4675 62.3348 56.049 62.3348 55.2703V48.5364C62.3348 48.2713 62.2191 48.0194 62.018 47.8466Z" fill="black"/>
<path d="M76.0814 41.9237L67.8545 34.8561C67.2648 34.3495 66.3525 34.7684 66.3525 35.5459V42.238C66.3525 42.5022 66.4674 42.7534 66.6673 42.9261L74.8942 50.0355C75.4834 50.5446 76.3982 50.1261 76.3982 49.3474V42.6135C76.3982 42.3484 76.2825 42.0965 76.0814 41.9237Z" fill="black"/>
</g>
<defs>
<clipPath id="clip0_442_7695">
<rect width="358" height="59" fill="white"/>
</clipPath>
</defs>
</svg>
