<svg width="24" height="31" viewBox="0 0 24 31" fill="none" xmlns="http://www.w3.org/2000/svg">
  <path
    d="M2 10.7279C2 9.50369 2.56058 8.34691 3.52142 7.58835L10.0214 2.45677C11.4747 1.30948 13.5253 1.30948 14.9786 2.45677L21.4786 7.58835C22.4394 8.34691 23 9.50369 23 10.7279V18.6053C23 20.8144 21.2091 22.6053 19 22.6053H16.8158C16.2635 22.6053 15.8158 22.1575 15.8158 21.6053V17.9737C15.8158 16.8691 14.9204 15.9737 13.8158 15.9737H11.1842C10.0796 15.9737 9.18421 16.8691 9.18421 17.9737V21.6053C9.18421 22.1575 8.7365 22.6053 8.18421 22.6053H6C3.79086 22.6053 2 20.8144 2 18.6053L2 10.7279Z"
    stroke="white" stroke-width="1.5"/>
  <path d="M4 29.5H20" stroke="white" stroke-width="1.5" stroke-linecap="round"/>
</svg>
