<svg width="25" height="30" viewBox="0 0 25 30" fill="none" xmlns="http://www.w3.org/2000/svg">
  <path
    d="M3.95795 22.2002L3.48943 21.6146H3.48943L3.95795 22.2002ZM6.78542 19.9383L6.3169 19.3526L6.78542 19.9383ZM3.08325 8.5C3.08325 6.15279 4.98604 4.25 7.33325 4.25V2.75C4.15761 2.75 1.58325 5.32436 1.58325 8.5H3.08325ZM3.08325 14V8.5H1.58325V14H3.08325ZM3.08325 14.5V14H1.58325V14.5H3.08325ZM3.08325 21.4194V14.5H1.58325V21.4194H3.08325ZM3.48943 21.6146C3.32573 21.7455 3.08325 21.629 3.08325 21.4194H1.58325C1.58325 22.8868 3.28063 23.7026 4.42647 22.7859L3.48943 21.6146ZM6.3169 19.3526L3.48943 21.6146L4.42647 22.7859L7.25395 20.5239L6.3169 19.3526ZM17.3333 18.75H8.03481V20.25H17.3333V18.75ZM21.5833 14.5C21.5833 16.8472 19.6805 18.75 17.3333 18.75V20.25C20.5089 20.25 23.0833 17.6756 23.0833 14.5H21.5833ZM21.5833 8.5V14.5H23.0833V8.5H21.5833ZM17.3333 4.25C19.6805 4.25 21.5833 6.15279 21.5833 8.5H23.0833C23.0833 5.32436 20.5089 2.75 17.3333 2.75V4.25ZM7.33325 4.25H17.3333V2.75H7.33325V4.25ZM7.25395 20.5239C7.47559 20.3466 7.75097 20.25 8.03481 20.25V18.75C7.41037 18.75 6.80451 18.9625 6.3169 19.3526L7.25395 20.5239Z"
    fill="white"/>
  <circle cx="7.3833" cy="11.5498" r="1.25" fill="white"/>
  <circle cx="12.3833" cy="11.5498" r="1.25" fill="white"/>
  <circle cx="17.3833" cy="11.5498" r="1.25" fill="white"/>
</svg>
