<svg width="24" height="24" viewBox="0 0 24 24" fill="none" xmlns="http://www.w3.org/2000/svg">
<path d="M2.07812 10.4744H21.9238" stroke="#005FAF" stroke-width="1.5" stroke-linecap="round"/>
<path d="M4.47461 10.4744V18.0461C4.47461 18.5984 4.92232 19.0461 5.47461 19.0461H18.5263C19.0786 19.0461 19.5263 18.5984 19.5263 18.0461V10.4744" stroke="#005FAF" stroke-width="1.5" stroke-linecap="round"/>
<path d="M12 5.75855V5.45874C12 4.35417 12.8954 3.45874 14 3.45874H14.2407C15.3453 3.45874 16.2407 4.35417 16.2407 5.45874V9.93985" stroke="#005FAF" stroke-width="1.5" stroke-linecap="round"/>
<path opacity="0.6" d="M12 10.6538V18.7073" stroke="#005FAF" stroke-width="1.5" stroke-linecap="round"/>
<path opacity="0.6" d="M7.42912 4.35205H4.22266C3.67037 4.35205 3.22266 4.79977 3.22266 5.35205V7.77155C3.22266 8.87612 4.11809 9.77155 5.22266 9.77155H6.42912C7.53369 9.77155 8.42912 8.87612 8.42912 7.77155V5.35205C8.42912 4.79977 7.9814 4.35205 7.42912 4.35205Z" stroke="#005FAF" stroke-width="1.5" stroke-linecap="round"/>
</svg>
