<svg width="24" height="24" viewBox="0 0 24 24" fill="none" xmlns="http://www.w3.org/2000/svg">
<path fill-rule="evenodd" clip-rule="evenodd" d="M6.09766 6.68613C6.09766 6.05535 6.61687 5.53613 7.24766 5.53613H16.7477C17.3784 5.53613 17.8977 6.05535 17.8977 6.68613V9.38483C18.3103 9.03799 18.8295 8.81422 19.3977 8.7711V6.68613C19.3977 5.22692 18.2069 4.03613 16.7477 4.03613H7.24766C5.78844 4.03613 4.59766 5.22692 4.59766 6.68613V8.77076C5.16783 8.8128 5.68606 9.03459 6.09766 9.37877V6.68613Z" fill="#005FAF"/>
<path opacity="0.6" d="M17.7 11.4142C17.7 10.3692 18.555 9.51416 19.6 9.51416C20.645 9.51416 21.5 10.3692 21.5 11.4142V16.1642C21.5 16.8799 21.099 17.5064 20.5105 17.8303C20.0508 18.0832 19.6 18.4895 19.6 19.0142C19.6 19.5388 19.1747 19.9642 18.65 19.9642C18.1253 19.9642 17.7 19.5388 17.7 19.0142C17.7 18.4895 17.2747 18.0642 16.75 18.0642H7.25C6.72533 18.0642 6.3 18.4895 6.3 19.0142C6.3 19.5388 5.87467 19.9642 5.35 19.9642C4.82533 19.9642 4.4 19.5388 4.4 19.0142C4.4 18.4895 3.94915 18.0832 3.48949 17.8303C2.90104 17.5064 2.5 16.8799 2.5 16.1642V11.4142C2.5 10.3692 3.3455 9.51416 4.4 9.51416C5.4545 9.51416 6.3 10.3692 6.3 11.4142V13.2642C6.3 13.8164 6.74772 14.2642 7.3 14.2642H16.7C17.2523 14.2642 17.7 13.8164 17.7 13.2642V11.4142Z" stroke="#005FAF" stroke-width="1.5"/>
</svg>
