<svg width="24" height="24" viewBox="0 0 24 24" fill="none" xmlns="http://www.w3.org/2000/svg">
<path opacity="0.6" d="M21.5 4.96125C21.4309 4.06307 20.6795 3.36353 19.7727 3.36353H4.22727H4.09773C3.19955 3.43262 2.5 4.17534 2.5 5.0908V15.4544V15.584C2.56909 16.4735 3.32045 17.1817 4.22727 17.1817H9.40909C9.88606 17.1817 10.2727 17.5684 10.2727 18.0453C10.2727 18.5223 9.88606 18.909 9.40909 18.909C8.93212 18.909 8.54545 19.2956 8.54545 19.7726C8.54545 20.2496 8.93212 20.6363 9.40909 20.6363H14.5909C15.0679 20.6363 15.4545 20.2496 15.4545 19.7726C15.4545 19.2956 15.0679 18.909 14.5909 18.909C14.1139 18.909 13.7273 18.5223 13.7273 18.0453C13.7273 17.5684 14.1139 17.1817 14.5909 17.1817H19.7727H19.9023C20.7918 17.1126 21.5 16.3613 21.5 15.4544V5.0908V4.96125Z" stroke="#005FAF" stroke-width="1.5"/>
<path d="M13.728 8.89085C13.728 7.94085 12.9593 7.16357 12.0007 7.16357C11.0507 7.16357 10.2734 7.93221 10.2734 8.89085C10.2734 9.84948 11.0421 10.6181 12.0007 10.6181C12.9593 10.6181 13.728 9.84085 13.728 8.89085Z" stroke="#005FAF" stroke-width="1.5"/>
<path d="M15.454 12.6689C15.454 11.541 13.9081 10.6182 11.9995 10.6182C10.0908 10.6182 8.54492 11.541 8.54492 12.6689V12.6943C8.54492 13.2466 8.99264 13.6943 9.54492 13.6943H11.9995H14.454C15.0063 13.6943 15.454 13.2466 15.454 12.6943V12.6689Z" stroke="#005FAF" stroke-width="1.5"/>
</svg>
