<svg width="24" height="24" viewBox="0 0 24 24" fill="none" xmlns="http://www.w3.org/2000/svg">
<path d="M5 4.22217V9.66661C5 10.9903 5.83208 12.1135 7.00128 12.5574C7.49507 12.7448 7.91667 13.1659 7.91667 13.6941V18.8055C7.91667 19.3424 8.35195 19.7777 8.88889 19.7777V19.7777C9.42583 19.7777 9.86111 19.3424 9.86111 18.8055V13.6941C9.86111 13.1659 10.2827 12.7448 10.7765 12.5574C11.9457 12.1135 12.7778 10.9903 12.7778 9.66661V4.22217M15.1111 7.33328V12.5833C15.1111 13.1202 15.5464 13.5555 16.0833 13.5555V13.5555C16.6203 13.5555 17.0556 13.9908 17.0556 14.5277V18.8055C17.0556 19.3424 17.4908 19.7777 18.0278 19.7777V19.7777C18.5647 19.7777 19 19.3424 19 18.8055V5.22217C19 4.66988 18.5456 4.21094 18.0101 4.34629C16.3424 4.76786 15.1111 6.18249 15.1111 7.33328Z" stroke="#005FAF" stroke-width="1.5" stroke-linecap="round"/>
<path opacity="0.6" d="M7.59961 4.22217L7.59961 9.43142" stroke="#005FAF" stroke-width="1.5" stroke-linecap="round"/>
<path opacity="0.6" d="M10.2012 4.22217L10.2012 9.43142" stroke="#005FAF" stroke-width="1.5" stroke-linecap="round"/>
</svg>
